<svg viewBox="0 0 146 40" xmlns="http://www.w3.org/2000/svg">
    <path d="M20.08.88a5,5,0,0,0-5.64,0L2.12,9.42a4.89,4.89,0,0,0-2.12,4v9.36A18.73,18.73,0,0,0,3.41,33.4C6.13,37.17,10.63,40,17.26,40h1.26V32.68H17.26c-4.23,0-6.53-1.68-7.88-3.55a11.48,11.48,0,0,1-2-6.32v-8.1l9.91-6.86,9.91,6.86V25.29H18.52v7.32H29.59a4.93,4.93,0,0,0,4.93-4.92V13.45a4.89,4.89,0,0,0-2.12-4Zm27.27,31V9.32h9.8c5.16,0,8.24,2.9,8.24,8.06s-3.08,8-8.24,8H53.58v6.51Zm6.23-12H56.5a2.4,2.4,0,0,0,2.66-2.58c0-1.64-.84-2.45-2.56-2.45h-3Zm13.24,12V14.8h5.75v1.55h.06a4.74,4.74,0,0,1,4-1.9,12.82,12.82,0,0,1,2,.19l-.71,5.57c-.62-.06-1.14-.09-1.62-.09-2.21,0-3.38,1.29-3.38,3.86v7.9Zm21.2.68c-5.55,0-9.21-3.61-9.21-9.19-.1-5.31,3.73-9.34,8.79-9.25s8.8,3.77,8.8,9.22V25H84.71c.13,1.86,1.24,2.8,3.31,2.8,1.43,0,2.63-.74,3.9-2.19l3.67,3.54A10.12,10.12,0,0,1,88,32.56ZM84.78,21.28h6a2.69,2.69,0,0,0-3-2.61A2.77,2.77,0,0,0,84.78,21.28ZM132,32.56a8.76,8.76,0,0,1-9.05-9.19c0-5.41,3.76-9.25,9.05-9.25a8.85,8.85,0,0,1,9.12,9.25A8.82,8.82,0,0,1,132,32.56Zm0-5.42c1.92,0,3-1.42,3-3.77s-1.1-3.83-3-3.83-3,1.38-3,3.83S130.08,27.14,132,27.14Zm-25-.74H109v5.48h-2.82c-4.58,0-6.72-2.13-6.72-6.28v-6H96.31V14.8h3.15V10.29h6.07V14.8h6.73V10.29h6.07V14.8h4.12v4.77h-4.12v5.35c0,1,.45,1.48,1.52,1.48h2v5.48H119c-4.58,0-6.72-2.13-6.72-6.28v-6h-6.73v5.35C105.53,26,106,26.4,107.06,26.4Z">
    </path>
</svg>